<svg xmlns="http://www.w3.org/2000/svg" width="227" height="60" fill="none"><g clip-path="url(#a)"><path fill="#252420" d="M19 0 0 13.646V48.65l10.534 10.534-.232-36.764L19 15.308l8.698 7.112-.232 36.764L38 48.65V13.646z"/><path fill="#ff7401" d="M25.994 29.592 19 33.791l-6.994-4.199v12.259L19 46.055l6.994-4.204z"/></g><path fill="#252420" d="M62.688 35.936h-6.266l-1.219 4.656h-4.86l7.11-22.75h4.203l7.157 22.75h-4.907zm-5.266-3.828h4.25l-2.125-8.11zm18.922 1.968-1.188 1.329v5.187h-4.422v-24h4.422v12.969l.547-.813 3.063-5.062h5.265l-4.906 6.969 5.375 9.937h-5.063zm17.734 6.516q-.187-.39-.375-1.312-1.187 1.625-3.219 1.625-2.124 0-3.53-1.407-1.391-1.405-1.391-3.64 0-2.656 1.687-4.11 1.703-1.452 4.89-1.484h1.344v-1.36q0-1.14-.39-1.609t-1.14-.469q-1.657 0-1.657 1.938h-4.422q0-2.344 1.75-3.86 1.766-1.53 4.453-1.53 2.781 0 4.297 1.452 1.53 1.439 1.531 4.125v7.954q.032 2.188.625 3.421v.266zm-2.61-3.156q.735 0 1.25-.297.516-.297.766-.703V32.92h-1.062q-1.125 0-1.781.719-.642.72-.641 1.922 0 1.875 1.469 1.875Zm9.048-5.813q0-4.155 1.406-6.203t4.094-2.047q1.953 0 3.25 1.688v-8.469h4.453v24h-4.016l-.203-1.719q-1.36 2.032-3.5 2.032-2.656 0-4.062-2.032-1.392-2.03-1.422-5.968zm4.437 1.11q0 2.5.531 3.5.532.984 1.797.984 1.313 0 1.985-1.172v-7.719q-.657-1.25-1.969-1.25-1.219 0-1.781.985-.563.984-.563 3.5zm18.859 8.172q-3.405 0-5.312-2.032c-1.907-2.032-1.906-3.291-1.906-5.812v-1.344q0-4 1.75-6.172t5.015-2.172q3.188 0 4.797 2.047 1.61 2.032 1.641 6.031v2.172H121q.094 1.875.828 2.75.735.86 2.266.86 2.218 0 3.703-1.516l1.734 2.672q-.812 1.125-2.359 1.828-1.547.688-3.36.688m-2.781-10.375h4.422v-.407q-.031-1.515-.5-2.297-.468-.78-1.625-.78c-1.157 0-1.333.275-1.687.827q-.516.828-.61 2.657m15.422-6.844.125 1.562q1.485-1.875 3.922-1.875 2.531 0 3.578 2.282 1.453-2.282 4.141-2.282 4.437 0 4.547 6.14v11.08h-4.422V29.794q0-1.468-.406-2.094t-1.376-.625q-1.234 0-1.843 1.516l.031.531v11.47h-4.422V29.825q0-1.452-.39-2.093-.391-.657-1.391-.657-1.141 0-1.813 1.235v12.281h-4.422V23.686z"/><path fill="#ff7500" d="m160.094 23.686.125 1.672q1.5-1.985 3.922-1.985 4.36 0 4.484 6.11v11.11h-4.437V29.81q0-1.438-.438-2.078-.422-.657-1.5-.657-1.203 0-1.875 1.235v12.281h-4.437V23.686zm19.734 16.906q-.187-.39-.375-1.312-1.187 1.625-3.219 1.625-2.124 0-3.531-1.407-1.39-1.405-1.391-3.64 0-2.656 1.688-4.11 1.703-1.452 4.891-1.484h1.343v-1.36q0-1.14-.39-1.609-.391-.468-1.141-.469-1.656 0-1.656 1.938h-4.422q0-2.344 1.75-3.86 1.765-1.53 4.453-1.53 2.782 0 4.297 1.452 1.531 1.439 1.531 4.125v7.954q.031 2.188.625 3.421v.266zm-2.609-3.156q.734 0 1.25-.297.515-.297.765-.703V32.92h-1.062q-1.125 0-1.781.719-.64.72-.641 1.922 0 1.875 1.469 1.875m17.125-1.375q0-.563-.547-1.031-.531-.485-2.391-1.297-2.734-1.11-3.765-2.297-1.016-1.188-1.016-2.953 0-2.22 1.594-3.657 1.609-1.453 4.25-1.453 2.78 0 4.453 1.438 1.671 1.437 1.672 3.86h-4.422q0-2.064-1.719-2.063-.703 0-1.156.437-.453.438-.453 1.219 0 .562.5 1 .5.421 2.359 1.219 2.703 1 3.813 2.234 1.125 1.22 1.125 3.172 0 2.265-1.703 3.64t-4.469 1.376q-1.86 0-3.281-.72-1.422-.734-2.235-2.03a5.25 5.25 0 0 1-.797-2.797h4.203q.031 1.156.532 1.734.515.578 1.671.578 1.782 0 1.782-1.61Zm11.359-10.89q1.438-1.798 3.531-1.798 2.313 0 3.516 1.625t1.219 4.844v10.75h-4.438V29.89q0-1.485-.469-2.14-.452-.673-1.484-.673-1.203 0-1.875 1.11v12.406h-4.422v-24h4.422zm19.781 2.78-1.468-.125q-1.813 0-2.454 1.594v11.172h-4.437V23.686h4.172l.125 1.828q1.047-2.14 2.89-2.14.75 0 1.219.202z"/><defs><clipPath id="a"><path fill="#fff" d="M0 0h38v59.184H0z"/></clipPath></defs></svg>